PathFileType	4	(X/Y/Z)	C:/Users/beibeiliu/ov580/test_trc/User3\sequence.38_training_dense_left.trc
DataRate	CameraRate	NumFrames	NumMarkers	Units	OrigDataRate	OrigDataStartFrame	OrigNumFrames
120	120	9	19	mm	120	60	89
Frame#	Time	ThumbCMC			ThumbMCP			ThumbIP			ThumbTip			IndexMCP			IndexPIP			IndexTip			MiddleMCP			MiddlePIP			MiddleTip			RingMCP			RingPIP			RingTip			PinkyMCP			PinkyPIP			PinkyTip			BackHand1			BackHand2			BackHand3	
		X0	Y0	Z0	X1	Y1	Z1	X2	Y2	Z2	X3	Y3	Z3	X4	Y4	Z4	X5	Y5	Z5	X6	Y6	Z6	X7	Y7	Z7	X8	Y8	Z8	X9	Y9	Z9	X10	Y10	Z10	X11	Y11	Z11	X12	Y12	Z12	X13	Y13	Z13	X14	Y14	Z14	X15	Y15	Z15	X16	Y16	Z16	X17	Y17	Z17	X18	Y18	Z18	
59	0.491667	-202.367	23.8804	-0.672672	-208.305	20.1657	-36.0146	-209.799	-3.33529	-56.8077	-202.121	-29.7787	-50.1351	-257.262	-6.36271	-55.3366	-269.336	-10.8995	-79.1429	-274.872	-19.9323	-97.6324	-257.612	-29.2976	-56.3178	-269.05	-30.3021	-79.4898	-276.682	-37.9674	-110.835	-246.025	-41.4915	-51.0178	-258.704	-43.7457	-74.2809	-268.002	-50.2676	-99.9545	-224.253	-53.4084	-38.534	-240.545	-57.5998	-60.4973	-250.094	-59.5447	-76.2355	-224.567	-39.2031	-0.588761	-214.87	-35.7161	24.5309	-231.314	-1.33703	7.40972	
60	0.5	-180.382	32.6651	-3.67233	-185.51	30.844	-38.264	-198.337	6.80105	-62.0752	-201.774	-16.5861	-52.456	-235.654	24.9667	-56.9812	-249.853	23.4183	-81.646	-261.69	18.3515	-108.009	-247.74	10.0685	-62.0288	-257.425	7.77018	-85.7541	-268.332	8.88786	-120.508	-244.742	-10.3899	-54.2878	-256.805	-11.7501	-78.2133	-263.833	-10.6327	-102.319	-232.625	-27.6553	-41.4215	-246.026	-29.363	-60.7647	-259.061	-28.561	-78.0636	-229.159	-10.683	-7.82474	-216.887	-11.1768	23.053	-216.745	17.4983	2.59532	
61	0.508333	-158.287	32.3714	-8.63946	-159.949	31.1675	-43.7469	-177.401	15.0243	-66.4396	-196.895	-8.50491	-60.2244	-209.471	43.8853	-64.3656	-220.875	48.3935	-90.7765	-228.589	52.1265	-115.388	-225.709	36.2101	-71.586	-234.885	38.2479	-98.0214	-241.105	41.82	-128.804	-232.011	14.7612	-60.9057	-240.09	21.8385	-85.9786	-248.523	21.0003	-112.919	-232.753	-3.67274	-48.8133	-240.538	2.21059	-68.8646	-247.474	7.5231	-87.8015	-221.106	11.3572	-14.3907	-212.261	8.60025	14.2147	-195.117	39.2591	-1.5565	
62	0.516667	-139.052	24.0303	-11.6293	-141.224	23.0993	-48.7837	-159.449	13.1197	-68.37	-186.784	-0.292533	-63.7009	-179.283	53.6981	-75.1792	-185.083	59.786	-98.0742	-194.741	62.0783	-124.999	-196.53	50.3831	-77.4655	-201.209	57.4999	-107.194	-208.919	59.1393	-135.717	-210.518	34.9959	-70.9079	-213.216	42.9543	-93.1781	-220.133	44.7566	-122.77	-217.584	17.398	-54.8073	-223.786	24.8433	-75.7353	-230.185	33.7912	-96.4295	-201.961	30.2852	-16.4714	-196.503	25.1694	8.41181	-172.007	43.5164	-9.37263	
63	0.525	-124.25	13.7052	-15.9578	-121.887	9.36032	-51.0633	-143.935	3.93713	-72.2317	-171.983	-1.9641	-67.6782	-149.669	46.0068	-82.8788	-154.42	51.4605	-110.021	-159.376	55.1366	-134.896	-169.724	48.5549	-88.026	-169.946	52.9308	-113.531	-171.555	55.1412	-146.717	-184.274	37.6685	-76.412	-185.391	44.3045	-103.821	-191.141	46.2314	-129.546	-196.071	24.8414	-59.7237	-202.317	32.2309	-82.2543	-200.942	41.7683	-104.342	-179.872	36.5957	-26.2432	-183.445	33.5705	3.7099	-148.45	43.6914	-18.5045	
64	0.533333	-111.568	2.75683	-17.9667	-105.36	-11.2526	-48.9106	-130.929	-14.5249	-76.1338	-156.523	-14.5254	-68.2706	-127.43	24.6754	-92.2246	-129.104	25.0437	-119.188	-130.076	24.904	-140.185	-142.507	30.0329	-96.6103	-145.5	28.1583	-125.404	-147.328	25.8456	-155.837	-163.696	26.6151	-87.3845	-162.545	26.9773	-111.012	-163.335	24.9986	-138.898	-175.333	18.7426	-68.4931	-178.857	23.8257	-90.8039	-182.604	28.969	-111.273	-160.886	33.3864	-34.8786	-161.251	34.3198	-6.20761	-126.927	31.8064	-25.2523	
65	0.541667	-97.6334	-10.9079	-12.805	-95.4738	-28.7966	-43.816	-114.759	-38.0376	-62.4522	-143.458	-32.848	-64.1514	-107.395	-3.08286	-86.7947	-112.062	-9.77085	-115.651	-114.712	-13.496	-140.915	-123.962	2.21809	-97.5318	-129.269	-5.34451	-123.946	-131.635	-13.3237	-150.255	-141.212	2.33752	-88.8162	-143.461	-2.41785	-113.592	-147.548	-8.51914	-138.151	-158.389	3.57624	-72.2461	-164.056	3.20188	-92.4434	-158.379	3.87209	-114.039	-142.324	22.0995	-36.5913	-145.032	32.1906	-13.9268	-111.665	20.9918	-26.6386	
66	0.55	-86.27	-20.7752	-2.21421	-82.3208	-45.8994	-26.2172	-104.793	-57.5935	-48.1101	-133.844	-54.5575	-52.2936	-94.4239	-30.4422	-76.3143	-97.3876	-43.2388	-101.609	-100.449	-55.0257	-124.795	-114.176	-26.5441	-89.4508	-112.161	-39.4273	-108.899	-117.612	-58.4875	-137.823	-131.249	-23.347	-81.2378	-134.379	-32.4779	-103.582	-134.016	-45.8484	-123.46	-149.753	-16.1893	-62.2356	-149.168	-24.4035	-83.7103	-152.276	-29.4435	-106.215	-129.27	9.2416	-35.6272	-132.962	21.4576	-14.0585	-98.8	8.4566	-23.492	
67	0.558333	-79.6668	-17.6105	7.42761	-74.0668	-47.386	-8.45734	-92.0172	-69.2035	-29.0004	-122.32	-66.4323	-31.4182	-88.1856	-47.4781	-61.8219	-85.4411	-65.9952	-81.1235	-85.3179	-82.6982	-100.36	-105.68	-49.7643	-72.538	-103.088	-69.9502	-91.9072	-103.04	-92.1381	-111.004	-122.59	-46.737	-66.8537	-121.348	-65.1091	-86.8535	-119.366	-83.0327	-103.571	-141.615	-40.7177	-55.071	-140.836	-53.4093	-72.8255	-136.965	-66.7715	-91.5075	-127.769	-3.61117	-33.1024	-131.129	11.6596	-13.7408	-96.792	1.78249	-19.9642	
